Coordinates
version=1
nRows=5
nColumns=40
inDegrees=yes

Units are S.I. units (second, meters, Newtons, ...)
Angles are in degrees.

endheader
time	pelvis_tilt	pelvis_list	pelvis_rotation	pelvis_tx	pelvis_ty	pelvis_tz	hip_flexion_r	hip_adduction_r	hip_rotation_r	knee_angle_r	knee_angle_r_beta	ankle_angle_r	subtalar_angle_r	mtp_angle_r	hip_flexion_l	hip_adduction_l	hip_rotation_l	knee_angle_l	knee_angle_l_beta	ankle_angle_l	subtalar_angle_l	mtp_angle_l	lumbar_extension	lumbar_bending	lumbar_rotation	arm_flex_r	arm_add_r	arm_rot_r	elbow_flex_r	pro_sup_r	wrist_flex_r	wrist_dev_r	arm_flex_l	arm_add_l	arm_rot_l	elbow_flex_l	pro_sup_l	wrist_flex_l	wrist_dev_l
      0.23000000	    -14.59701336	     -3.24351730	     -9.65844991	      1.00038166	      0.98504817	     -0.34455640	     41.17813655	     10.32263948	     -4.58400433	     37.48749178	      0.65428016	      0.56084674	      0.00000000	      0.00000000	     13.22793247	     -3.71646599	     -1.47862931	     92.39620479	      1.61261799	    -12.98395558	      0.00000000	      0.00000000	      2.90848692	      9.08206483	      1.81625472	    -37.10988967	    -24.17077257	    -10.37022678	    107.96148282	     49.60138480	      0.00000000	      0.00000000	    -29.68121757	    -15.16627288	      1.18951133	    115.78798805	     50.40329633	      0.00000000	      0.00000000
      0.24000000	    -13.85778466	     -3.19713807	     -9.99284092	      0.99634420	      0.97901198	     -0.34494356	     40.55272859	     10.55193835	     -3.20129807	     42.35249376	      0.73919046	      4.70291949	      0.00000000	      0.00000000	     15.96895033	     -4.25773148	     -1.52140634	     96.73272883	      1.68830461	    -10.71546872	      0.00000000	      0.00000000	      1.23748423	      9.19933298	      3.34668482	    -34.32363785	    -24.69505708	     -9.29634435	    106.70907804	     50.73113494	      0.00000000	      0.00000000	    -28.99726120	    -14.91501702	      1.52381231	    111.96157403	     51.54875475	      0.00000000	      0.00000000
      0.25000000	    -13.24519276	     -3.53091387	     -9.85146068	      0.99234720	      0.97387688	     -0.34534124	     39.31506844	     11.01409446	     -1.96737706	     45.88915543	      0.80091685	      7.44956804	      0.00000000	      0.00000000	     19.09671685	     -5.11521514	     -0.76353006	    100.58314596	      1.75550707	     -9.70165442	      0.00000000	      0.00000000	     -0.32455245	      9.61499357	      4.52059090	    -31.30690576	    -24.95838753	     -8.70525688	    104.80700636	     51.05279222	      0.00000000	      0.00000000	    -28.22732112	    -14.63978364	      2.22513006	    108.08898949	     51.91486604	      0.00000000	      0.00000000
      0.26000000	    -13.05639110	     -3.31089215	     -9.35139577	      0.98929281	      0.96946353	     -0.34600176	     37.79228491	     10.73775786	     -0.93328922	     48.28759007	      0.84277743	     11.30827382	      0.00000000	      0.00000000	     22.85764067	     -5.33111372	      0.05289513	    103.60787759	      1.80829859	     -7.78657062	      0.00000000	      0.00000000	     -0.90024051	      9.43579238	      5.25517311	    -28.27702749	    -25.27057488	     -7.46122419	    102.47626583	     51.57826731	      0.00000000	      0.00000000	    -27.74241118	    -14.54144672	      3.26905738	    103.89165862	     52.51848383	      0.00000000	      0.00000000
      0.27000000	    -12.68430611	     -3.15016678	     -9.00797607	      0.98664909	      0.96671190	     -0.34612736	     35.36059557	     10.42136604	     -0.41671881	     49.25679008	      0.85969317	     12.51703593	      0.00000000	      0.00000000	     26.50337743	     -5.58393106	      0.68391973	    105.74901466	      1.84566849	     -7.24238265	      0.00000000	      0.00000000	     -2.01407907	      9.13710819	      6.53719431	    -25.95776898	    -25.13814099	     -7.17042139	    101.70027858	     51.67289022	      0.00000000	      0.00000000	    -27.83436236	    -14.40862428	      3.83396902	    102.05247605	     52.59044563	      0.00000000	      0.00000000
